<?xml version="1.0" standalone="no"?><!DOCTYPE svg PUBLIC "-//W3C//DTD SVG 1.1//EN" "http://www.w3.org/Graphics/SVG/1.1/DTD/svg11.dtd"><svg class="icon" width="200px" height="200.00px" viewBox="0 0 1024 1024" version="1.1" xmlns="http://www.w3.org/2000/svg"><path d="M884.736 483.4816a30.72 30.72 0 0 1 40.0896 40.1408l-179.712 435.712a30.72 30.72 0 0 1-57.3952-1.536l-61.44-175.7184-175.616-61.3376a30.72 30.72 0 0 1-1.5872-57.3952l435.6096-179.8656zM819.2 71.68a30.72 30.72 0 0 1 30.72 30.72v307.2h-61.44V133.12H158.72v757.76h276.48v61.44h-307.2a30.72 30.72 0 0 1-30.72-30.72V102.4a30.72 30.72 0 0 1 30.72-30.72H819.2z m20.6336 496.7936l-292.7616 120.832 113.408 39.6288a30.72 30.72 0 0 1 18.8928 18.8416l39.68 113.5616 120.7808-292.864zM465.92 506.88v61.44H225.28V506.88h240.64z m128-204.8v61.44H225.28V302.08h368.64z" fill="#171A1D" /></svg>