<?xml version="1.0" standalone="no"?><!DOCTYPE svg PUBLIC "-//W3C//DTD SVG 1.1//EN" "http://www.w3.org/Graphics/SVG/1.1/DTD/svg11.dtd"><svg class="icon" width="200px" height="200.00px" viewBox="0 0 1024 1024" version="1.1" xmlns="http://www.w3.org/2000/svg"><path fill="#e6e6e6" d="M280.93746 820.11238c-11.155061 0-22.310122 11.208273-22.310121 22.417569v5.604648c0 11.208273 11.155061 22.417569 22.310121 22.417569h462.924282c11.155061 0 22.309098-11.208273 22.309098-22.417569v-5.604648c0-11.208273-11.155061-22.417569-22.309098-22.417569H280.93746zM838.678224 147.586336c-11.155061 0-22.309098 11.208273-22.309098 28.022217v694.944636c0 28.022217-22.310122 44.835138-44.61922 44.835138H253.05032c-22.310122 0-44.61922-22.417569-44.61922-44.835138v-50.439786c0-28.022217 22.310122-44.835138 44.61922-44.835138h446.193225c39.042201 0 72.506361-33.625842 72.506361-72.857354V136.37704c0-39.23049-33.464159-72.857355-72.506361-72.857354H236.31824c-39.042201 0-72.506361 33.625842-72.50636 72.857354V892.968711c0 39.23049 27.887141 67.252707 66.929341 67.252707H794.059004c39.042201 0 66.929342-28.022217 66.929342-67.252707V175.608553c-0.001023-11.209296-11.155061-28.022217-22.310122-28.022217z m-552.163745 224.175689h145.012722V248.464885c0-16.812921 16.73208-33.626865 39.042201-33.626865 16.73208 0 33.464159 16.812921 33.464159 33.626865v128.900765h128.280642c22.310122 0 39.042201 16.812921 39.042201 39.23049 0 16.812921-16.73208 33.625842-39.042201 33.625841H504.033561v140.110062c0 22.417569-16.73208 39.23049-39.042201 39.23049s-39.042201-16.812921-39.042202-39.23049V450.223005H286.514479c-22.310122 0-39.042201-16.812921-39.042201-39.23049 0.001023-22.417569 16.733103-39.23049 39.042201-39.23049z" /></svg>