<?xml version="1.0" standalone="no"?><!DOCTYPE svg PUBLIC "-//W3C//DTD SVG 1.1//EN" "http://www.w3.org/Graphics/SVG/1.1/DTD/svg11.dtd"><svg class="icon" width="200px" height="200.00px" viewBox="0 0 1024 1024" version="1.1" xmlns="http://www.w3.org/2000/svg"><path d="M512 512m-512 0a512 512 0 1 0 1024 0 512 512 0 1 0-1024 0Z" fill="#FED000" /><path d="M320 341.333333l22.506667-43.669333c17.173333-33.386667 59.754667-49.706667 98.56-37.76L704 340.672" fill="#FFFFFF" /><path d="M722.709333 341.333333c36.736 0.128 66.496 27.904 66.624 62.186667v80.469333c0 12.714667-11.029333 22.997333-24.64 22.997334h-187.178666c-19.818667 0-35.882667 14.954667-35.968 33.450666v52.202667c0.085333 18.496 16.149333 33.450667 35.968 33.450667l186.688-0.106667c13.610667 0 24.64 10.282667 24.64 22.976v78.186667c-0.128 34.282667-29.866667 62.08-66.624 62.186666H301.290667c-36.736-0.128-66.496-27.904-66.624-62.186666V403.626667c0.064-34.346667 29.845333-62.186667 66.624-62.314667h421.418666z m-282.858666 85.333334h-116.501334A24.96 24.96 0 0 0 298.666667 451.861333a24.96 24.96 0 0 0 24.682666 25.194667h116.501334a24.96 24.96 0 0 0 24.682666-25.173333A24.96 24.96 0 0 0 439.850667 426.666667z" fill="#FFFFFF" /><path d="M618.666667 565.333333c0 11.434667 8.128 21.994667 21.333333 27.712a55.232 55.232 0 0 0 42.666667 0c13.205333-5.717333 21.333333-16.277333 21.333333-27.712 0-11.434667-8.128-21.994667-21.333333-27.712a55.232 55.232 0 0 0-42.666667 0c-13.205333 5.717333-21.333333 16.277333-21.333333 27.712z" fill="#FFFFFF" /></svg>