<?xml version="1.0" standalone="no"?><!DOCTYPE svg PUBLIC "-//W3C//DTD SVG 1.1//EN" "http://www.w3.org/Graphics/SVG/1.1/DTD/svg11.dtd"><svg class="icon" width="200px" height="200.00px" viewBox="0 0 1024 1024" version="1.1" xmlns="http://www.w3.org/2000/svg"><path d="M892.51 916.77c-9.57 0-19.15-3.61-26.52-10.82L672.24 716.4c-14.98-14.64-15.24-38.67-0.59-53.64 14.66-14.99 38.68-15.21 53.64-0.59l193.74 189.56c14.98 14.64 15.24 38.67 0.59 53.64-7.43 7.6-17.27 11.4-27.11 11.4z" fill="#F7B52C" /><path d="M438.3 434.47m-346.07 0a346.07 346.07 0 1 0 692.14 0 346.07 346.07 0 1 0-692.14 0Z" fill="#F7B52C" /><path d="M218.15 511.92c-17.94-89.72 13.64-187.03 84.17-257.59M218.1 543.14c-14.57 0-27.61-10.25-30.57-25.09-20.13-100.75 14.53-207.58 92.72-285.79 12.2-12.2 31.96-12.2 44.15 0 12.19 12.2 12.19 31.96 0 44.15-63.4 63.42-91.68 149.16-75.65 229.39 3.38 16.92-7.58 33.36-24.5 36.75-2.06 0.39-4.12 0.59-6.15 0.59z" fill="#FFFFFF" /></svg>