<?xml version="1.0" standalone="no"?><!DOCTYPE svg PUBLIC "-//W3C//DTD SVG 1.1//EN" "http://www.w3.org/Graphics/SVG/1.1/DTD/svg11.dtd"><svg class="icon" width="200px" height="200.00px" viewBox="0 0 1024 1024" version="1.1" xmlns="http://www.w3.org/2000/svg"><path d="M800 162H224a96 96 0 0 0-96 96v448a96 96 0 0 0 96 96h64a31.9 31.9 0 0 1 32 32v62.6a33.6 33.6 0 0 0 9.4 24.1 32.1 32.1 0 0 0 38.5 5.1l209.2-120a32.6 32.6 0 0 1 15.9-4.2H800a96 96 0 0 0 96-96V258a96 96 0 0 0-96-96z" fill="#3F86FF" /><path d="M584 457.6h-48V410a24 24 0 0 0-48 0v48H440a24 24 0 1 0 0 48h48v48a24 24 0 1 0 48 0v-48h48a24 24 0 1 0 0-48z" fill="#FFFFFF" /><path d="M512 712a71.6 71.6 0 0 1-50.9-21.1L302.7 532.5a71.9 71.9 0 0 1 0-101.8l158.4-158.4a71.9 71.9 0 0 1 101.8 0l158.4 158.4a72 72 0 0 1 0 101.8L562.9 690.9a71.6 71.6 0 0 1-50.9 21.1z m-17-55a24.8 24.8 0 0 0 34 0l158.4-158.4a24.2 24.2 0 0 0 0-34L529 306.2a24.8 24.8 0 0 0-34 0L336.6 464.6a24.1 24.1 0 0 0 0 34z" fill="#FFFFFF" /></svg>