<?xml version="1.0" standalone="no"?><!DOCTYPE svg PUBLIC "-//W3C//DTD SVG 1.1//EN" "http://www.w3.org/Graphics/SVG/1.1/DTD/svg11.dtd"><svg class="icon" width="200px" height="200.00px" viewBox="0 0 1024 1024" version="1.1" xmlns="http://www.w3.org/2000/svg"><path fill="#1296db" d="M511.4 64.8C331.7 64.8 186 210.5 186 390.2s145.7 325.4 325.4 325.4S836.8 570 836.8 390.2c0-179.7-145.7-325.4-325.4-325.4z m135.7 450.4c-138.5 131-271.3 0-271.7-0.3-8.3-8.4-8.3-21.9 0-30.3 8.4-8.3 21.9-8.3 30.3 0 0.3 0.3 103.8 102.3 212.2-0.3 8.5-8.1 22-7.7 30.1 0.9 8.1 8.5 7.7 22-0.9 30z m0 0"  /><path fill="#1296db" d="M926.4 915.6c-37.8-78.1-96.9-144-170.4-190-19.6-12.1-40.1-22.6-61.3-31.6-55.2 33.6-118.6 51.3-183.3 51.4-67.1 0-129.7-19-183.3-51.4-21 9.1-41.5 19.3-61 31.4-73.5 46.2-132.5 112-170.4 190.1-3.5 7.2-4 15.5-1.3 23 2.7 7.7 8.1 13.8 15.3 17.2 2.8 1.4 5.9 1.6 8.9 2l-0.7 1.1h780.4c4.5 0 8.9-1 13-3 7.2-3.5 12.7-9.6 15.3-17.2 2.8-7.5 2.3-15.8-1.2-23z m0 0"  /></svg>