<?xml version="1.0" standalone="no"?><!DOCTYPE svg PUBLIC "-//W3C//DTD SVG 1.1//EN" "http://www.w3.org/Graphics/SVG/1.1/DTD/svg11.dtd"><svg class="icon" width="200px" height="200.00px" viewBox="0 0 1024 1024" version="1.1" xmlns="http://www.w3.org/2000/svg"><path d="M512 804.5568c-226.2016 0-409.6-180.0704-409.6-402.2784S285.7984 0 512 0s409.6 180.1216 409.6 402.2784c0 222.208-183.3984 402.2784-409.6 402.2784zM208.9472 1024c39.7312-127.0784 160.2048-219.4432 302.592-219.4432 142.4384 0 262.8608 92.3648 302.592 219.4432H208.9472z" fill="#222222" /><path d="M647.0656 557.2096a27.3408 27.3408 0 0 0 1.7408-35.7376 21.0432 21.0432 0 0 0-32-1.9456c-4.3008 4.1984-104.96 102.2464-233.3184-1.6896-10.1376-8.192-24.3712-5.6832-31.744 5.632a27.136 27.136 0 0 0-4.3008 14.7968c0 7.8336 3.2256 15.5648 9.3696 20.48 157.696 127.6928 289.024-0.256 290.304-1.536z" fill="#FFFFFF" /></svg>