<?xml version="1.0" standalone="no"?><!DOCTYPE svg PUBLIC "-//W3C//DTD SVG 1.1//EN" "http://www.w3.org/Graphics/SVG/1.1/DTD/svg11.dtd"><svg class="icon" width="200px" height="200.00px" viewBox="0 0 1024 1024" version="1.1" xmlns="http://www.w3.org/2000/svg"><path d="M366.4 810.6H265.1c-41.9 0-76-37.3-76-83V295.8c0-45.7 34.1-83 76-83h456c41.9 0 76 37.3 76 83v41.6c0 13.7 11.4 24.9 25.3 24.9s25.3-11.2 25.3-24.9v-41.6c0-73.2-56.8-132.8-126.7-132.8H265c-69.8 0-126.7 59.6-126.7 132.8v431.8c0 73.3 56.8 132.8 126.7 132.8h101.3c14 0 25.3-11.2 25.3-24.9 0.2-13.8-11.2-24.9-25.2-24.9zM265.1 362.2c-14 0-25.3 11.2-25.3 24.9 0 13.8 11.3 24.9 25.3 24.9h202.7c14 0 25.3-11.2 25.3-24.9s-11.3-24.9-25.3-24.9H265.1z m177.3 174.4c0-13.7-11.3-24.9-25.3-24.9h-152c-14 0-25.3 11.2-25.3 24.9s11.3 24.9 25.3 24.9h152c14 0 25.3-11.2 25.3-24.9z m304.2 71.1c38.2-27.2 63.1-71.4 63.1-121.2 0-82.4-68.2-149.5-152-149.5s-152 67.1-152 149.5c0 49.8 24.9 94 63.2 121.2-80.7 39.7-139.2 127.4-139.2 202.6 0 13.7 11.4 24.9 25.3 24.9 14 0 25.3-11.2 25.3-24.9 0-68.9 79.4-174.4 177.3-174.4s177.3 105.5 177.3 174.4c0 13.7 11.3 24.9 25.3 24.9s25.3-11.2 25.3-24.9c0.2-75.2-58.2-162.8-138.9-202.6z m-88.8-21.5c-55.9 0-101.3-44.6-101.3-99.6S601.9 387 657.8 387s101.3 44.7 101.3 99.6-45.4 99.6-101.3 99.6z" fill="#666666" /><path d="M366.4 870.8H265.1c-75.6 0-137.1-64.3-137.1-143.3V295.8c0-79 61.5-143.2 137.1-143.2h456c75.6 0 137.1 64.3 137.1 143.2v41.6c0 19.5-16 35.3-35.8 35.3-19.7 0-35.8-15.9-35.8-35.3v-41.6c0-40-29.4-72.6-65.6-72.6H265c-36.2 0-65.6 32.6-65.6 72.6v431.8c0 40 29.4 72.6 65.6 72.6h101.3c19.7 0 35.8 15.9 35.8 35.3 0.1 19.5-15.9 35.3-35.7 35.3zM265.1 173.4c-64.1 0-116.2 54.9-116.2 122.4v431.8c0 67.5 52.1 122.4 116.2 122.4h101.3c8.2 0 14.9-6.5 14.9-14.5s-6.7-14.5-14.9-14.5H265.1c-47.7 0-86.4-41.9-86.4-93.4V295.8c0-51.5 38.8-93.4 86.4-93.4h456c47.7 0 86.4 41.9 86.4 93.4v41.6c0 8 6.7 14.5 14.9 14.5s14.9-6.5 14.9-14.5v-41.6c0-67.5-52.1-122.4-116.2-122.4h-456z m595.3 672.3c-19.7 0-35.8-15.9-35.8-35.3 0-31.8-19.3-73.4-49.2-106-19.9-21.6-61.6-58-117.7-58s-97.8 36.3-117.7 58c-29.9 32.6-49.2 74.2-49.2 106 0 19.5-16 35.3-35.8 35.3-19.7 0-35.8-15.9-35.8-35.3 0-75.4 55.2-160.6 130.6-204.3-34.5-30.2-54.6-73.8-54.6-119.5 0-88.2 72.9-159.9 162.4-159.9 89.6 0 162.4 71.7 162.4 159.9 0 45.7-20.2 89.3-54.6 119.5C840.8 649.8 896 735 896 810.4c0.2 19.4-15.9 35.3-35.6 35.3zM657.8 625.6c47.5 0 94.8 23 133.1 64.7 33.7 36.8 54.7 82.8 54.7 120.1 0 8 6.7 14.5 14.9 14.5s14.9-6.5 14.9-14.5c0-72.7-57.3-155.8-133.3-193.3l-15.7-7.7 14.3-10.1c36.8-26.2 58.8-68.3 58.8-112.7 0-76.7-63.5-139-141.5-139-78.1 0-141.6 62.4-141.6 139 0 44.4 22 86.5 58.8 112.7l14.3 10.1-15.7 7.7c-76 37.4-133.3 120.5-133.3 193.3 0 8 6.7 14.5 14.9 14.5s14.9-6.5 14.9-14.5c0-37.3 21-83.3 54.7-120.1 38-41.7 85.3-64.7 132.8-64.7z m0-29c-61.6 0-111.8-49.4-111.8-110.1s50.1-110.1 111.8-110.1c61.6 0 111.8 49.4 111.8 110.1s-50.2 110.1-111.8 110.1z m0-199.3c-50.1 0-90.9 40-90.9 89.2s40.8 89.2 90.9 89.2c50.1 0 90.9-40 90.9-89.2s-40.8-89.2-90.9-89.2zM417.1 571.9h-152c-19.7 0-35.8-15.9-35.8-35.3 0-19.5 16-35.3 35.8-35.3h152c19.7 0 35.8 15.9 35.8 35.3 0 19.5-16.1 35.3-35.8 35.3z m-152-49.8c-8.2 0-14.9 6.5-14.9 14.5s6.7 14.5 14.9 14.5h152c8.2 0 14.9-6.5 14.9-14.5s-6.7-14.5-14.9-14.5h-152z m202.7-99.6H265.1c-19.7 0-35.8-15.9-35.8-35.3 0-19.5 16-35.3 35.8-35.3h202.7c19.7 0 35.8 15.9 35.8 35.3-0.1 19.4-16.1 35.3-35.8 35.3z m-202.7-49.9c-8.2 0-14.9 6.5-14.9 14.5s6.7 14.5 14.9 14.5h202.7c8.2 0 14.9-6.5 14.9-14.5s-6.7-14.5-14.9-14.5H265.1z" fill="#666666" /></svg>