<?xml version="1.0" standalone="no"?><!DOCTYPE svg PUBLIC "-//W3C//DTD SVG 1.1//EN" "http://www.w3.org/Graphics/SVG/1.1/DTD/svg11.dtd"><svg class="icon" width="200px" height="200.00px" viewBox="0 0 1024 1024" version="1.1" xmlns="http://www.w3.org/2000/svg"><path d="M498.165 54.986c-41 0-92.89 5.13-138.81 13.72-39.23 7.34-63.25 15.12-76.05 20.47v208.55c47.05-23.75 100.76-52.14 229.79-52.14 127.02 0 175.49 23.74 212.78 41.33V90.166c-13.77-5.52-39.75-13.57-82.44-21.2-49.01-8.75-103.32-13.98-145.27-13.98m0-54.82c105.57 0 282.53 30.69 282.53 67.17v297.25c0 36.48-73.55-64.19-267.7-64.19-194.15 0-284.5 100.68-284.5 64.19V67.336c0-36.48 164.11-67.17 269.67-67.17z" fill="#6A6A6A" /><path d="M499.195 300.39c-39.97 0-84.07 5.67-120.99 15.55-38.78 10.38-68.75 24.95-84.4 41.02-9.54 9.8-10.67 16.89-10.52 22.53l0.02 1.45c0 59.3 23.03 115.04 64.86 156.96 41.79 41.89 97.34 64.95 156.43 64.95 59.08 0 114.64-23.07 156.43-64.95 41.82-41.92 64.86-97.66 64.86-156.96v-0.11c0.02-11.98-3.77-20.9-12.68-29.83-11.27-11.29-35.62-27.13-87.66-38.46-46.16-10.04-94.18-12.15-126.35-12.15m13.81-54.81c127.12 0 267.92 24.23 267.69 135.37 0 152.83-123.61 276.73-276.1 276.73s-276.1-123.9-276.1-276.73c-2.54-95.81 155.58-135.37 284.51-135.37zM432.388 134.176h132.11v48h-132.11z" fill="#6A6A6A" /><path d="M474.428 92.106h48v132.11h-48zM618.981 648.942c1.25 0 2.87 0.1 5.39 0.84 48.47 14.16 87.89 28.45 120.52 43.66 36.03 16.81 64.6 35.01 87.33 55.65 49.15 44.63 72.04 102.82 72.04 183.13 0 6.55-0.14 11.21-0.34 14.52-3.25 0.92-7.9 2.03-14.37 3.14-15.24 2.62-36.11 4.55-63.78 5.92-57.83 2.85-143 3.08-260.89 3.4-22.38 0.06-46.01 0.12-70.94 0.21-18.65 0.06-36.51 0.13-53.63 0.2-44.76 0.17-83.42 0.32-118.04 0.32-81.23 0-127.95-0.89-161.25-3.06-22.58-1.47-36.14-3.44-44.11-5.08-0.1-4.86-0.09-10.37-0.09-15.03v-4.53c0-41.34 6.04-76.02 18.48-106.02 11.04-26.66 27.31-49.71 49.72-70.49 51.66-47.88 132.78-79.39 205.35-103.91 1.63-0.55 4-0.83 7.02-0.83 9.65 0 23.29 2.84 37.73 5.85 21.02 4.37 44.8 9.33 71.62 9.45 2.46 0.07 4.93 0.1 7.36 0.1 34.71 0 61.06-7.1 80.3-12.29 10.27-2.77 19.11-5.15 24.58-5.15m0-64c-31.15 0-57.37 17.43-104.85 17.43-2.06 0-4.18-0.03-6.32-0.1-39.73 0-76.57-15.3-110.4-15.3-9.41 0-18.59 1.18-27.53 4.21-186.22 62.91-317.05 137-317.05 341.04 0 82.42-5.14 91.69 269.44 91.69 48.16 0 104.97-0.29 171.88-0.51 451.75-1.53 474.1 3.96 474.1-91.18 0-210.69-139.4-289.37-325.93-343.88-8.3-2.42-15.96-3.4-23.34-3.4z" fill="#6A6A6A" /><path d="M496.208 995.246c-8.18 0-16.29-3.13-22.45-9.18l-200.33-196.97c-11.23-11.04-12.76-28.62-3.6-41.43l93.9-131.32a31.997 31.997 0 0 1 30.93-13.01 31.985 31.985 0 0 1 25.54 21.75l106.44 328.29c4.55 14.02-1.08 29.34-13.61 37.09a31.973 31.973 0 0 1-16.82 4.78z m-158.4-232.61l87.65 86.18-46.57-143.64-41.08 57.46z" fill="#6A6A6A" /><path d="M491.488 996.016c-5.79 0-11.62-1.57-16.82-4.79-12.54-7.75-18.16-23.07-13.61-37.09l106.51-328.29a32.013 32.013 0 0 1 25.54-21.75 31.993 31.993 0 0 1 30.92 13.01l93.9 131.32c9.16 12.81 7.64 30.39-3.6 41.43l-200.4 196.98a31.958 31.958 0 0 1-22.44 9.18z m117.39-290.08l-46.61 143.66 87.7-86.2-41.09-57.46z" fill="#6A6A6A" /></svg>