<?xml version="1.0" standalone="no"?><!DOCTYPE svg PUBLIC "-//W3C//DTD SVG 1.1//EN" "http://www.w3.org/Graphics/SVG/1.1/DTD/svg11.dtd"><svg class="icon" width="200px" height="200.00px" viewBox="0 0 1024 1024" version="1.1" xmlns="http://www.w3.org/2000/svg"><path fill="#e6e6e6" d="M723.03350668 10.23330077H198.40815348c-43.39006694 0-82.83558187 39.44551494-82.83558288 82.83558188v635.07279703c0 43.39006694 39.44551494 82.83558187 82.83558288 82.83558187h524.6253532c43.39006694 0 82.83558187-39.44551494 82.83558288-82.83558187V93.06888265c0-47.33461793-35.50096394-82.83558187-82.83558288-82.83558188z m-74.94647888 433.90066835h-145.94840677v157.78206174c0 23.66730897-19.72275797 43.39006694-43.39006694 43.39006695s-43.39006694-19.72275797-43.39006694-43.39006695v-157.78206174h-157.78206077c-23.66730897 0-43.39006694-19.72275797-43.39006694-43.39006694 0-23.66730897 19.72275797-43.39006694 43.39006694-43.39006692h165.67116375v-138.0593028c0-19.72275797 19.72275797-39.44551494 43.39006694-39.44551594 19.72275797 0 39.44551494 19.72275797 39.44551594 39.44551594v145.94840577h145.94840678c23.66730897 0 43.39006694 19.72275797 43.39006693 43.39006695-3.94455199 15.77820599-19.72275797 35.50096394-47.33461892 35.50096394zM786.14633158 893.81284443h-524.6253542c-11.83365499 0-23.66730897-11.83365499-23.66730896-23.66730995v-7.88910301c0-11.83365499 11.83365499-23.66730897 23.66730896-23.66730896h524.62535421c11.83365499 0 23.66730897 11.83365499 23.66730897 23.66730896v7.88910301c0 11.83365499-11.83365499 23.66730897-23.66730898 23.66730995zM880.81556843 78.09933166c-11.83365499 0-23.66730897 11.83365499-23.66730895 31.55641196v781.0212038c0 31.55641195-23.66730897 51.27916992-51.27916992 51.27916992h-587.73817912c-23.66730897 0-51.27916992-23.66730897-51.27916992-51.27916992v-55.2237219c0-31.55641195 23.66730897-51.27916992 51.27916992-51.27916992h441.78977233v-157.78206077h-465.45708128c-43.39006694 0-74.94647889 31.55641195-74.94647889 74.94647887v213.00578269c0 43.39006694 31.55641195 74.94647889 74.94647889 74.94647889h635.07279702c43.39006694 0 74.94647889-31.55641195 74.9464789-74.94647889v-804.68851277c3.94455199-11.83365499-7.88910298-31.55641195-23.66730898-31.55641196z" /></svg>