<?xml version="1.0" standalone="no"?><!DOCTYPE svg PUBLIC "-//W3C//DTD SVG 1.1//EN" "http://www.w3.org/Graphics/SVG/1.1/DTD/svg11.dtd"><svg class="icon" width="200px" height="200.00px" viewBox="0 0 1024 1024" version="1.1" xmlns="http://www.w3.org/2000/svg"><path d="M800.57 359.14c-0.09 0-0.16-0.07-0.16-0.16V173.77c0-34.6-28.05-62.65-62.65-62.65H295.84c-34.6 0-62.65 28.05-62.65 62.65V358.98c0 0.09-0.07 0.16-0.16 0.16h-7.58c-51.46 0-93.17 41.72-93.17 93.17V908.1c0 5.03 4.08 9.1 9.1 9.1h742.75c5.32 0 9.63-4.31 9.63-9.63V452.32c-0.02-51.46-41.74-93.18-93.19-93.18zM640.93 695.86h-71.68c-0.09 0-0.16 0.07-0.16 0.16v71.68c0 0.09-0.07 0.16-0.16 0.16H457.08c-0.09 0-0.16-0.07-0.16-0.16v-71.68c0-0.09-0.07-0.16-0.16-0.16h-71.68c-0.09 0-0.16-0.07-0.16-0.16V583.86c0-0.09 0.07-0.16 0.16-0.16h71.68c0.09 0 0.16-0.07 0.16-0.16v-71.68c0-0.09 0.07-0.16 0.16-0.16h111.84c0.09 0 0.16 0.07 0.16 0.16v71.68c0 0.09 0.07 0.16 0.16 0.16h71.68c0.09 0 0.16 0.07 0.16 0.16V695.7c0.01 0.08-0.06 0.16-0.15 0.16z m47.14-336.72H345.51c-0.09 0-0.16-0.07-0.16-0.16V223.45c0-0.09 0.07-0.16 0.16-0.16h342.56c0.09 0 0.16 0.07 0.16 0.16v135.53c0 0.09-0.07 0.16-0.16 0.16z" /></svg>