<?xml version="1.0" standalone="no"?><!DOCTYPE svg PUBLIC "-//W3C//DTD SVG 1.1//EN" "http://www.w3.org/Graphics/SVG/1.1/DTD/svg11.dtd"><svg class="icon" width="200px" height="200.00px" viewBox="0 0 1024 1024" version="1.1" xmlns="http://www.w3.org/2000/svg"><path d="M931.84 89.088V960.512H127.1808V64.512h644.096v618.0864H349.184c-48.128 0-87.04 38.912-87.04 87.04v2.6624c0 48.128 38.912 87.04 87.04 87.04h446.6688c14.1312 0 26.2144-11.0592 26.4192-25.1904 0.2048-14.336-11.264-26.0096-25.6-26.0096H349.184c-19.8656 0-35.84-15.9744-35.84-35.84v-2.6624c0-19.8656 15.9744-35.84 35.84-35.84h473.088V63.488c0-27.648-22.528-50.176-50.176-50.176H126.1568c-27.648 0-50.176 22.528-50.176 50.176v898.048c0 27.648 22.528 50.176 50.176 50.176h806.7072c27.648 0 50.176-22.528 50.176-50.176v-872.448c0-14.1312-11.4688-25.6-25.6-25.6S931.84 74.9568 931.84 89.088z" /></svg>